PathFileType	4	(X/Y/Z)	RBDS07static.trc
DataRate	CameraRate	NumFrames	NumMarkers	Units	OrigDataRate	OrigDataStartFrame	OrigNumFrames
150.000000	150.000000	4	48	mm	150.000000	0	150
Frame#	Time	L.Ankle			L.Ankle.Medial			L.ASIS			L.GTR			L.Heel.Bottom			L.Heel.Lateral			L.Heel.Top			L.HF			L.Iliac.Crest			L.Knee			L.Knee.Medial			L.MT1			L.MT2			L.MT5			L.PSIS			L.Shank.Bottom.Lateral			L.Shank.Bottom.Medial			L.Shank.Top.Lateral			L.Shank.Top.Medial			L.Thigh.Bottom.Lateral			L.Thigh.Bottom.Medial			L.Thigh.Top.Lateral			L.Thigh.Top.Medial			L.TT			R.Ankle			R.Ankle.Medial			R.ASIS			R.GTR			R.Heel.Bottom			R.Heel.Lateral			R.Heel.Top			R.HF			R.Iliac.Crest			R.Knee			R.Knee.Medial			R.MT1			R.MT2			R.MT5			R.PSIS			R.Shank.Bottom.Lateral			R.Shank.Bottom.Medial			R.Shank.Top.Lateral			R.Shank.Top.Medial			R.Thigh.Bottom.Lateral			R.Thigh.Bottom.Medial			R.Thigh.Top.Lateral			R.Thigh.Top.Medial			R.TT			
		X1	Y1	Z1	X2	Y2	Z2	X3	Y3	Z3	X4	Y4	Z4	X5	Y5	Z5	X6	Y6	Z6	X7	Y7	Z7	X8	Y8	Z8	X9	Y9	Z9	X10	Y10	Z10	X11	Y11	Z11	X12	Y12	Z12	X13	Y13	Z13	X14	Y14	Z14	X15	Y15	Z15	X16	Y16	Z16	X17	Y17	Z17	X18	Y18	Z18	X19	Y19	Z19	X20	Y20	Z20	X21	Y21	Z21	X22	Y22	Z22	X23	Y23	Z23	X24	Y24	Z24	X25	Y25	Z25	X26	Y26	Z26	X27	Y27	Z27	X28	Y28	Z28	X29	Y29	Z29	X30	Y30	Z30	X31	Y31	Z31	X32	Y32	Z32	X33	Y33	Z33	X34	Y34	Z34	X35	Y35	Z35	X36	Y36	Z36	X37	Y37	Z37	X38	Y38	Z38	X39	Y39	Z39	X40	Y40	Z40	X41	Y41	Z41	X42	Y42	Z42	X43	Y43	Z43	X44	Y44	Z44	X45	Y45	Z45	X46	Y46	Z46	X47	Y47	Z47	X48	Y48	Z48	

1	0	696.336669921875	113.4090576171875	1034.691162109375	718.7888793945313	124.8934326171875	1117.47119140625	843.5217895507813	1083.337646484375	1089.656982421875	777.9108276367188	984.7010498046875	1046.589965820313	637.4019775390625	39.64817428588867	1080.095703125	665.462158203125	61.33259582519531	1038.883056640625	644.9116821289063	87.56925964355469	1082.935791015625	696.2338256835938	502.3636474609375	1045.775146484375	781.7305297851563	1131.490478515625	1068.757202148438	705.3511352539063	560.7191772460938	1055.946533203125	714.68212890625	537.45361328125	1173.08447265625	854.38623046875	56.04795074462891	1119.534545898438	858.130615234375	71.59868621826172	1080.1376953125	828.4877319335938	50.47989654541016	1010.90771484375	682.9327392578125	1101.884399414063	1180.011962890625	689.3646240234375	202.7061462402344	1034.803344726563	646.686279296875	196.9519958496094	1068.447875976563	674.4255981445313	281.40185546875	1027.705322265625	632.5635375976563	276.7416381835938	1060.56494140625	708.703369140625	704.0277709960938	1045.117065429688	662.575927734375	711.3890991210938	1102.014038085938	718.5057983398438	813.9205932617188	1041.803466796875	678.9884643554688	820.2203369140625	1099.809936523438	755.3206787109375	468.3297729492188	1095.840209960938	702.702392578125	107.6908416748047	1411.5888671875	721.656982421875	131.0094299316406	1328.796508789063	850.27001953125	1084.283081054688	1348.012573242188	797.234130859375	984.9100952148438	1392.881225585938	636.265380859375	40.24422073364258	1370.186279296875	659.9736328125	59.76129531860352	1408.88330078125	643.6238403320313	89.80126953125	1369.48046875	724.404296875	502.7328491210938	1414.143798828125	783.5673828125	1136.698608398438	1369.224853515625	733.092041015625	559.923095703125	1404.777587890625	733.08203125	541.8748779296875	1287.9658203125	857.1470947265625	61.16837310791016	1328.69482421875	858.0986328125	74.02852630615234	1369.924194335938	832.754638671875	54.64716720581055	1433.012939453125	690.25341796875	1106.574584960938	1269.833862304688	692.8707275390625	202.8988189697266	1417.586181640625	653.0724487304688	209.4652557373047	1385.204467773438	693.5007934570313	286.7265930175781	1430.805908203125	650.2178955078125	289.3115844726563	1399.125122070313	764.8370971679688	668.125732421875	1412.366088867188	698.0966186523438	682.1210327148438	1384.505615234375	783.4122924804688	776.9793701171875	1419.814453125	719.9917602539063	789.3494873046875	1394.898681640625	778.7262573242188	469.9259643554688	1364.911499023438	
2	0.006666666666666667	696.3368530273438	113.4052886962891	1034.687133789063	718.8029174804688	124.8991851806641	1117.478881835938	843.50830078125	1083.345825195313	1089.65771484375	777.9090576171875	984.7019653320313	1046.588256835938	637.4044189453125	39.64274597167969	1080.086303710938	665.463134765625	61.32832717895508	1038.884887695313	644.918212890625	87.56990814208984	1082.929565429688	696.2461547851563	502.3752746582031	1045.765625	781.71630859375	1131.490600585938	1068.767700195313	705.3630981445313	560.7415161132813	1055.943115234375	714.6965942382813	537.4542236328125	1173.072021484375	854.3878173828125	56.0358772277832	1119.532348632813	858.1350708007813	71.59233093261719	1080.128540039063	828.483154296875	50.47494506835938	1010.898193359375	682.9043579101563	1101.880493164063	1180.033569335938	689.3646850585938	202.7133483886719	1034.791015625	646.6923828125	196.9603729248047	1068.44580078125	674.431640625	281.4046630859375	1027.701538085938	632.56103515625	276.7394409179688	1060.564086914063	708.7197265625	704.0242309570313	1045.108520507813	662.5848999023438	711.3885498046875	1102.026733398438	718.50732421875	813.9196166992188	1041.816650390625	678.9970703125	820.2180786132813	1099.81640625	755.3331909179688	468.3410034179688	1095.847290039063	702.7039794921875	107.6905059814453	1411.588500976563	721.66064453125	131.0107879638672	1328.792114257813	850.2737426757813	1084.283203125	1348.00927734375	797.2371826171875	984.9108276367188	1392.882690429688	636.2601318359375	40.2418327331543	1370.182861328125	659.9800415039063	59.75878143310547	1408.885375976563	643.6166381835938	89.79689025878906	1369.4658203125	724.4278564453125	502.7352294921875	1414.141723632813	783.5684814453125	1136.706787109375	1369.218872070313	733.0985717773438	559.9266967773438	1404.775512695313	733.1068115234375	541.8736572265625	1287.97119140625	857.15869140625	61.1613655090332	1328.694091796875	858.106201171875	74.03025054931641	1369.921020507813	832.7547607421875	54.63186264038086	1433.0048828125	690.2401123046875	1106.572021484375	1269.8515625	693.6127319335938	202.8432769775391	1417.232543945313	653.0763549804688	209.4684600830078	1385.205688476563	693.5048217773438	286.7280883789063	1430.804321289063	650.2313232421875	289.3084411621094	1399.134033203125	764.8621215820313	668.1159057617188	1412.354370117188	698.1056518554688	682.1184692382813	1384.500854492188	783.4244995117188	776.9829711914063	1419.814697265625	719.9953002929688	789.3444213867188	1394.897583007813	778.735595703125	469.9255065917969	1364.9140625	
3	0.01333333333333333	696.320068359375	113.4038696289063	1034.68408203125	718.7940673828125	124.9044036865234	1117.4833984375	843.4947509765625	1083.361083984375	1089.655639648438	777.892822265625	984.7086791992188	1046.586059570313	637.4043579101563	39.64548873901367	1080.088012695313	665.4611206054688	61.3262939453125	1038.8828125	644.9179077148438	87.57048797607422	1082.925170898438	696.2601928710938	502.3705139160156	1045.7626953125	781.713134765625	1131.50732421875	1068.778930664063	705.3675537109375	560.7352294921875	1055.931884765625	714.7214965820313	537.4481201171875	1173.071411132813	854.391845703125	56.04242324829102	1119.543334960938	858.143798828125	71.59627532958984	1080.134765625	828.4814453125	50.47492599487305	1010.901733398438	682.8920288085938	1101.872436523438	1180.03125	689.3760375976563	202.7129669189453	1034.796997070313	646.6929931640625	196.9524230957031	1068.446411132813	674.4354858398438	281.4009399414063	1027.70068359375	632.5714721679688	276.7426452636719	1060.55859375	708.7300415039063	704.0305786132813	1045.111572265625	662.6063842773438	711.3933715820313	1102.026123046875	718.5198364257813	813.9213256835938	1041.80810546875	679.0188598632813	820.2113037109375	1099.817016601563	755.351806640625	468.3396606445313	1095.840209960938	702.7113647460938	107.6969833374023	1411.578735351563	721.6627197265625	131.0000305175781	1328.791259765625	850.263427734375	1084.293090820313	1348.01025390625	797.2387084960938	984.9204711914063	1392.885864257813	636.2599487304688	40.24117660522461	1370.184326171875	659.9822387695313	59.75970458984375	1408.891235351563	643.6292114257813	89.802734375	1369.483764648438	724.4385375976563	502.7292175292969	1414.142456054688	783.5643310546875	1136.701171875	1369.229858398438	733.12158203125	559.9171752929688	1404.781372070313	733.1199951171875	541.8792724609375	1287.955200195313	857.1597900390625	61.16511154174805	1328.691772460938	858.0910034179688	74.03321838378906	1369.927490234375	832.75244140625	54.64555358886719	1433.009887695313	690.223876953125	1106.556396484375	1269.848754882813	693.613037109375	202.8518829345703	1417.235595703125	653.0798950195313	209.4661102294922	1385.20654296875	693.51416015625	286.7334594726563	1430.800415039063	650.2420043945313	289.3113098144531	1399.127075195313	764.8727416992188	668.1251831054688	1412.3642578125	698.122802734375	682.11083984375	1384.505493164063	783.4307861328125	776.9782104492188	1419.814697265625	720.0111694335938	789.3422241210938	1394.912475585938	778.7476806640625	469.9228210449219	1364.905639648438	
4	0.02	696.34375	113.3979034423828	1034.691284179688	718.7948608398438	124.8966674804688	1117.470336914063	843.4771118164063	1083.373291015625	1089.662719726563	777.8861694335938	984.7152709960938	1046.588012695313	637.40869140625	39.63806915283203	1080.091796875	665.461669921875	61.32444000244141	1038.883666992188	644.9204711914063	87.57138061523438	1082.926635742188	696.2625122070313	502.3728942871094	1045.762573242188	781.697998046875	1131.511352539063	1068.777465820313	705.3930053710938	560.7274169921875	1055.923095703125	714.7374877929688	537.4500732421875	1173.0732421875	854.3876342773438	56.04516220092773	1119.535522460938	858.1434936523438	71.60178375244141	1080.134887695313	828.4900512695313	50.48099517822266	1010.89794921875	682.8731689453125	1101.862670898438	1180.034790039063	689.3692626953125	202.7075958251953	1034.794311523438	646.7000122070313	196.9579620361328	1068.447509765625	674.4396362304688	281.4105834960938	1027.698486328125	632.5730590820313	276.7453918457031	1060.5625	708.7392578125	704.029296875	1045.101318359375	662.6240844726563	711.3857421875	1102.041137695313	718.5199584960938	813.9199829101563	1041.806884765625	679.0239868164063	820.20458984375	1099.827880859375	755.3462524414063	468.3269348144531	1095.819580078125	702.7113037109375	107.6955642700195	1411.581176757813	721.6641235351563	131.0057678222656	1328.79833984375	850.2607421875	1084.292724609375	1347.999389648438	797.243408203125	984.9140014648438	1392.8857421875	636.2613525390625	40.24302673339844	1370.190307617188	659.9837036132813	59.75584030151367	1408.878173828125	643.6268310546875	89.79412841796875	1369.478149414063	724.455810546875	502.7364807128906	1414.142944335938	783.557373046875	1136.703369140625	1369.240112304688	733.1380615234375	559.92431640625	1404.776733398438	733.1311645507813	541.8759765625	1287.9580078125	857.1524658203125	61.17079162597656	1328.694580078125	858.1082763671875	74.02861785888672	1369.920166015625	832.7547607421875	54.66336059570313	1433.015502929688	690.2197875976563	1106.5537109375	1269.867553710938	693.6177368164063	202.85205078125	1417.229736328125	653.0850830078125	209.4740295410156	1385.208374023438	693.5198974609375	286.7342529296875	1430.80517578125	650.2557983398438	289.3086547851563	1399.126831054688	764.8844604492188	668.1212158203125	1412.35986328125	698.1353149414063	682.107666015625	1384.5048828125	783.4443969726563	776.9781494140625	1419.817138671875	720.0167236328125	789.3395385742188	1394.895751953125	778.76025390625	469.9236450195313	1364.901489257813	
